<?xml version="1.0" standalone="no"?>
<!DOCTYPE svg PUBLIC "-//W3C//DTD SVG 20010904//EN"
 "http://www.w3.org/TR/2001/REC-SVG-20010904/DTD/svg10.dtd">
<svg version="1.0" xmlns="http://www.w3.org/2000/svg"
 width="400.000000pt" height="435.000000pt" viewBox="0 0 400.000000 435.000000"
 preserveAspectRatio="xMidYMid meet">

<g transform="translate(0.000000,435.000000) scale(0.100000,-0.100000)"
fill="#000000" stroke="none">
<path d="M1810 3989 c-544 -62 -1029 -361 -1327 -817 -124 -188 -218 -421
-265 -653 -20 -100 -23 -142 -23 -344 1 -210 3 -241 28 -356 110 -520 428
-960 878 -1217 239 -136 451 -202 761 -237 136 -16 158 -16 287 -1 194 22 285
41 426 87 617 202 1083 724 1215 1359 97 471 0 969 -267 1375 -297 451 -781
745 -1325 804 -111 13 -279 12 -388 0z m1173 -1223 l146 -154 -531 -553 c-292
-305 -589 -613 -659 -686 l-127 -132 -114 117 c-63 64 -230 237 -372 385
l-258 267 80 88 c44 48 108 114 141 147 l61 60 235 -235 235 -235 42 48 c203
226 955 1036 964 1036 5 1 76 -68 157 -153z"/>
</g>
</svg>
