<?xml version="1.0" standalone="no"?>
<!DOCTYPE svg PUBLIC "-//W3C//DTD SVG 20010904//EN"
 "http://www.w3.org/TR/2001/REC-SVG-20010904/DTD/svg10.dtd">
<svg version="1.0" xmlns="http://www.w3.org/2000/svg"
 width="400.000000pt" height="435.000000pt" viewBox="0 0 400.000000 435.000000"
 preserveAspectRatio="xMidYMid meet">

<g transform="translate(0.000000,435.000000) scale(0.100000,-0.100000)"
fill="#000000" stroke="none">
<path d="M503 4029 c-227 -72 -385 -318 -385 -599 1 -272 123 -491 404 -722
498 -409 611 -531 594 -641 -4 -23 -23 -73 -42 -110 -36 -69 -37 -87 -4 -87
38 0 78 48 100 120 34 108 30 147 -20 246 -52 103 -124 182 -304 338 -356 308
-456 480 -456 785 0 254 104 412 280 428 112 10 299 -46 380 -113 34 -29 36
-45 18 -141 -9 -52 -9 -66 1 -72 11 -7 11 -50 1 -232 -22 -389 7 -621 114
-934 49 -145 85 -219 157 -320 90 -126 188 -226 280 -285 113 -72 159 -153
159 -276 0 -68 -13 -102 -45 -114 -30 -11 -30 -13 -5 -48 19 -25 20 -33 10
-78 -15 -66 -83 -206 -123 -252 -18 -20 -69 -82 -112 -137 -44 -55 -88 -106
-98 -113 -9 -7 -17 -19 -17 -26 0 -8 -7 -19 -15 -26 -8 -7 -15 -21 -15 -31 0
-11 -4 -19 -10 -19 -12 0 -89 -103 -112 -152 -10 -20 -18 -51 -18 -68 0 -26 6
-33 38 -47 20 -8 109 -27 197 -40 142 -21 197 -24 495 -26 299 -2 355 1 525
22 190 23 269 45 281 75 12 32 -27 116 -82 175 -30 32 -54 66 -54 74 0 9 -32
51 -71 94 -155 172 -256 323 -300 452 -24 68 -24 99 0 130 19 24 19 25 -12 45
-40 27 -50 70 -37 159 17 116 46 156 177 243 90 60 151 124 249 260 132 184
221 430 270 744 19 121 21 444 4 630 -8 99 -8 117 5 126 14 10 14 21 -1 94
l-17 83 29 24 c48 40 168 93 246 109 163 35 265 2 343 -111 65 -95 80 -156 79
-315 -1 -297 -99 -471 -423 -749 -185 -159 -288 -271 -332 -362 -50 -102 -54
-127 -33 -216 14 -60 25 -84 54 -115 22 -22 46 -38 60 -38 20 0 22 3 17 36 -4
20 -18 54 -32 76 -57 86 -41 174 50 275 46 52 312 291 410 368 157 124 304
271 370 370 100 152 140 293 132 470 -15 334 -227 584 -495 585 -143 0 -337
-78 -447 -181 l-65 -61 -32 15 c-89 42 -623 65 -1099 48 -349 -12 -469 -22
-551 -42 -46 -12 -47 -12 -73 19 -14 17 -56 51 -93 75 -175 114 -354 152 -499
106z"/>
</g>
</svg>
