<?xml version="1.0" standalone="no"?>
<!DOCTYPE svg PUBLIC "-//W3C//DTD SVG 20010904//EN"
 "http://www.w3.org/TR/2001/REC-SVG-20010904/DTD/svg10.dtd">
<svg version="1.0" xmlns="http://www.w3.org/2000/svg"
 width="400.000000pt" height="503.000000pt" viewBox="0 0 400.000000 503.000000"
 preserveAspectRatio="xMidYMid meet">

<g transform="translate(0.000000,503.000000) scale(0.100000,-0.100000)"
fill="#000000" stroke="none">
<path d="M1846 4830 c-482 -76 -860 -441 -952 -919 -16 -81 -18 -315 -4 -392
5 -24 11 -60 15 -79 6 -38 12 -64 15 -67 2 -2 4 -7 5 -13 1 -5 3 -11 4 -12 2
-2 4 -12 6 -24 8 -41 66 -158 121 -243 34 -52 97 -126 161 -190 l105 -104 -6
-44 c-12 -89 -15 -88 -123 23 -245 252 -380 527 -415 846 -12 118 -3 255 31
431 17 94 17 99 1 120 -18 21 -18 21 -76 -68 -145 -225 -205 -401 -222 -650
-14 -220 54 -524 169 -758 42 -85 73 -138 158 -266 l16 -25 -45 26 c-25 15
-74 38 -110 53 -57 24 -68 26 -103 15 l-39 -12 109 -111 c97 -101 223 -240
384 -427 216 -250 350 -606 324 -863 -7 -69 -9 -73 -48 -102 -22 -16 -44 -37
-48 -45 -4 -8 -12 -59 -18 -113 -15 -137 -81 -320 -120 -334 -9 -4 -32 -19
-51 -35 -19 -16 -40 -33 -46 -37 -14 -12 -49 -175 -41 -195 8 -21 90 -43 227
-60 477 -62 1593 -36 1743 41 32 16 33 29 9 137 -16 71 -21 81 -57 107 -22 16
-49 33 -61 38 -25 11 -89 148 -109 233 -8 35 -17 98 -21 141 l-7 78 -51 45
-51 44 1 123 c1 131 20 239 59 343 37 97 110 239 169 328 60 89 344 416 493
567 52 53 91 99 87 102 -5 2 -23 8 -40 11 -36 8 -133 -27 -209 -75 -26 -16
-43 -24 -39 -17 5 7 27 40 50 73 164 238 251 480 294 820 10 75 9 110 -4 210
-35 250 -90 396 -229 604 l-50 75 -18 -23 c-11 -13 -17 -26 -14 -30 2 -4 14
-63 26 -132 29 -158 31 -395 5 -508 -44 -197 -123 -376 -234 -530 -69 -98
-257 -299 -268 -289 -3 4 -11 30 -18 60 l-12 53 90 85 c161 153 267 320 312
493 1 4 2 8 4 10 3 4 8 31 25 136 25 151 17 362 -19 491 -114 412 -446 727
-861 816 -85 19 -298 26 -379 14z"/>
</g>
</svg>
