<?xml version="1.0" standalone="no"?>
<!DOCTYPE svg PUBLIC "-//W3C//DTD SVG 20010904//EN"
 "http://www.w3.org/TR/2001/REC-SVG-20010904/DTD/svg10.dtd">
<svg version="1.0" xmlns="http://www.w3.org/2000/svg"
 width="833.000000pt" height="645.000000pt" viewBox="0 0 833.000000 645.000000"
 preserveAspectRatio="xMidYMid meet">

<g transform="translate(0.000000,645.000000) scale(0.100000,-0.100000)"
fill="#000000" stroke="none">
<path d="M3130 3438 l0 -2973 668 -211 667 -212 5 2557 c4 1846 8 2564 16
2586 45 122 111 185 194 185 89 0 218 -87 261 -176 56 -116 53 -58 59 -1244
l5 -1095 108 -43 c171 -69 280 -93 443 -99 160 -6 263 9 375 56 389 163 587
609 566 1276 -18 552 -133 908 -389 1202 -225 258 -622 484 -1168 666 -530
177 -1177 359 -1600 451 -91 20 -175 38 -187 41 l-23 5 0 -2972z"/>
<path d="M1880 2470 c-1125 -401 -1181 -421 -1355 -505 -350 -166 -480 -291
-480 -460 0 -203 198 -379 558 -496 345 -113 613 -173 967 -216 111 -13 220
-18 470 -18 333 0 454 9 715 53 l100 17 3 347 c1 192 -1 348 -6 348 -4 0 -163
-57 -352 -126 -190 -69 -392 -136 -450 -149 -304 -69 -649 -45 -752 53 -61 57
-16 131 117 192 44 20 387 147 763 281 l682 243 0 393 c0 216 -1 392 -2 392
-2 -1 -442 -158 -978 -349z"/>
<path d="M5940 2470 c-336 -27 -764 -109 -1072 -207 l-148 -46 0 -404 c0 -222
2 -403 5 -403 2 0 342 119 755 265 413 145 793 273 845 285 297 64 630 40 732
-54 46 -42 47 -76 2 -123 -19 -19 -56 -46 -84 -61 -27 -14 -545 -202 -1150
-418 l-1100 -392 -3 -391 -2 -390 52 18 c525 183 2960 1066 3033 1100 223 105
402 245 455 356 35 72 34 180 -2 250 -39 75 -100 138 -192 200 -108 72 -191
109 -417 188 -304 107 -610 175 -954 212 -170 19 -597 27 -755 15z"/>
</g>
</svg>
