<?xml version="1.0" standalone="no"?>
<!DOCTYPE svg PUBLIC "-//W3C//DTD SVG 20010904//EN"
 "http://www.w3.org/TR/2001/REC-SVG-20010904/DTD/svg10.dtd">
<svg version="1.0" xmlns="http://www.w3.org/2000/svg"
 width="434.000000pt" height="303.000000pt" viewBox="0 0 434.000000 303.000000"
 preserveAspectRatio="xMidYMid meet">

<g transform="translate(0.000000,303.000000) scale(0.100000,-0.100000)"
fill="#000000" stroke="none">
<path d="M240 2486 l0 -156 465 0 c303 0 482 -4 517 -11 84 -18 155 -58 213
-121 70 -76 97 -144 103 -266 6 -116 -14 -197 -68 -280 -59 -92 -171 -171
-242 -172 -16 0 -28 -2 -28 -4 0 -3 138 -244 306 -535 l307 -531 153 0 c85 0
154 2 154 4 0 2 -113 205 -251 452 -138 247 -253 453 -255 459 -3 6 22 38 54
71 69 73 125 174 154 281 28 104 31 317 5 413 -67 253 -253 444 -507 521 -73
23 -88 23 -577 27 l-503 3 0 -155z"/>
<path d="M3133 2625 c-113 -31 -192 -95 -237 -188 -26 -55 -716 -1997 -716
-2016 0 -8 47 -11 148 -11 l148 0 303 863 c167 474 317 898 333 942 22 62 35
85 57 98 37 22 98 22 135 -1 27 -16 53 -84 317 -817 159 -440 289 -803 289
-807 0 -5 -209 -8 -465 -8 l-465 0 0 -135 0 -135 661 0 c626 0 661 1 654 18
-4 9 -166 463 -360 1007 -193 545 -363 1008 -377 1031 -38 60 -112 120 -177
145 -73 27 -180 33 -248 14z"/>
<path d="M240 1330 l0 -920 155 0 155 0 0 765 0 765 295 0 c276 0 295 -1 304
-18 7 -14 6 -25 -5 -40 -15 -22 -21 -22 -265 -22 l-249 0 0 -725 0 -725 150 0
150 0 2 384 3 384 220 -381 220 -382 163 -3 c89 -1 162 0 162 2 0 3 -144 258
-320 567 -176 309 -320 562 -320 564 0 1 37 5 83 7 96 5 161 33 218 95 48 51
64 80 83 143 44 147 -2 325 -102 394 -92 63 -71 61 -609 64 l-493 3 0 -921z"/>
<path d="M3192 2237 c-10 -12 -632 -1803 -632 -1820 0 -4 62 -6 137 -5 l136 3
66 197 c36 108 69 200 74 204 4 4 7 -7 7 -24 l0 -32 416 0 c392 0 416 1 409
17 -4 10 -119 335 -257 723 -137 388 -256 715 -264 728 -16 25 -74 31 -92 9z
m134 -917 c47 -145 88 -270 91 -277 4 -10 -31 -13 -176 -13 -100 0 -181 3
-181 7 0 13 173 553 176 550 2 -2 42 -122 90 -267z"/>
</g>
</svg>
