<?xml version="1.0" standalone="no"?>
<!DOCTYPE svg PUBLIC "-//W3C//DTD SVG 20010904//EN"
 "http://www.w3.org/TR/2001/REC-SVG-20010904/DTD/svg10.dtd">
<svg version="1.0" xmlns="http://www.w3.org/2000/svg"
 width="400.000000pt" height="435.000000pt" viewBox="0 0 400.000000 435.000000"
 preserveAspectRatio="xMidYMid meet">

<g transform="translate(0.000000,435.000000) scale(0.100000,-0.100000)"
fill="#000000" stroke="none">
<path d="M1815 3979 c-234 -24 -510 -111 -700 -220 -526 -301 -851 -795 -930
-1415 l-6 -51 263 -108 c145 -59 366 -150 491 -202 218 -91 229 -94 252 -79
42 28 172 66 223 66 l50 0 43 63 c23 34 121 176 217 316 l175 254 14 91 c28
188 80 294 207 421 132 131 256 188 441 202 155 11 354 -53 475 -154 181 -149
274 -376 250 -610 -18 -167 -79 -292 -205 -418 -119 -119 -232 -173 -415 -198
l-95 -13 -313 -224 -312 -224 0 -41 c0 -109 -54 -229 -145 -321 -127 -128
-312 -183 -475 -139 -169 45 -298 160 -356 320 l-21 60 -219 91 c-121 50 -275
114 -343 142 -95 40 -121 48 -116 34 3 -9 16 -44 27 -77 93 -269 290 -552 528
-756 373 -321 902 -484 1370 -424 303 38 567 132 795 282 520 343 828 909 829
1523 0 751 -464 1425 -1167 1697 -256 99 -563 140 -832 112z"/>
<path d="M2525 3079 c-83 -12 -195 -68 -253 -126 -29 -29 -65 -81 -88 -127
-34 -70 -39 -88 -42 -171 -7 -152 36 -261 139 -360 85 -81 167 -117 283 -123
152 -8 265 36 362 141 69 74 103 141 119 235 53 306 -209 574 -520 531z m220
-138 c156 -77 235 -273 175 -433 -28 -76 -104 -159 -178 -195 -50 -24 -69 -28
-147 -28 -78 0 -97 4 -146 28 -67 32 -142 109 -171 175 -12 26 -23 76 -26 113
-11 155 74 290 221 351 64 27 206 21 272 -11z"/>
<path d="M1415 1855 c-5 -2 -32 -6 -59 -10 -26 -4 -44 -10 -40 -15 5 -5 50
-25 99 -45 142 -59 180 -81 224 -131 45 -51 71 -121 71 -190 0 -115 -93 -237
-205 -270 -82 -23 -140 -14 -279 45 -66 28 -122 49 -124 46 -9 -9 47 -83 91
-119 78 -64 129 -81 242 -81 91 0 106 3 165 31 117 55 196 160 220 293 31 171
-78 357 -245 419 -49 19 -140 34 -160 27z"/>
</g>
</svg>
